<svg width="16" height="16" viewBox="0 0 16 16" fill="none" xmlns="http://www.w3.org/2000/svg">
<g clip-path="url(#clip0_2_452)">
<path d="M11.3333 2.66668H14C14.1768 2.66668 14.3464 2.73691 14.4714 2.86194C14.5964 2.98696 14.6667 3.15653 14.6667 3.33334V14C14.6667 14.1768 14.5964 14.3464 14.4714 14.4714C14.3464 14.5964 14.1768 14.6667 14 14.6667H2.00001C1.8232 14.6667 1.65363 14.5964 1.52861 14.4714C1.40358 14.3464 1.33334 14.1768 1.33334 14V3.33334C1.33334 3.15653 1.40358 2.98696 1.52861 2.86194C1.65363 2.73691 1.8232 2.66668 2.00001 2.66668H4.66668V1.33334H6.00001V2.66668H10V1.33334H11.3333V2.66668ZM13.3333 8.00001H2.66668V13.3333H13.3333V8.00001ZM10 4.00001H6.00001V5.33334H4.66668V4.00001H2.66668V6.66668H13.3333V4.00001H11.3333V5.33334H10V4.00001ZM4.00001 9.33334H5.33334V10.6667H4.00001V9.33334ZM7.33334 9.33334H8.66668V10.6667H7.33334V9.33334ZM10.6667 9.33334H12V10.6667H10.6667V9.33334Z" fill="#878787"/>
</g>
<defs>
<clipPath id="clip0_2_452">
<rect width="16" height="16" fill="white"/>
</clipPath>
</defs>
</svg>
