<svg width="32" height="33" viewBox="0 0 32 33" fill="none" xmlns="http://www.w3.org/2000/svg">
<g clip-path="url(#clip0_2_561)">
<path d="M16 3.08264C19.6227 3.08264 20.0747 3.09597 21.496 3.16264C22.916 3.22931 23.8827 3.45198 24.7334 3.78264C25.6134 4.12131 26.3547 4.57997 27.096 5.31997C27.774 5.9865 28.2986 6.79276 28.6334 7.68264C28.9627 8.53197 29.1867 9.49997 29.2534 10.92C29.316 12.3413 29.3334 12.7933 29.3334 16.416C29.3334 20.0386 29.32 20.4906 29.2534 21.912C29.1867 23.332 28.9627 24.2986 28.6334 25.1493C28.2996 26.0397 27.7748 26.8461 27.096 27.512C26.4293 28.1897 25.6231 28.7143 24.7334 29.0493C23.884 29.3786 22.916 29.6026 21.496 29.6693C20.0747 29.732 19.6227 29.7493 16 29.7493C12.3774 29.7493 11.9254 29.736 10.504 29.6693C9.08402 29.6026 8.11735 29.3786 7.26669 29.0493C6.37646 28.7153 5.57006 28.1906 4.90402 27.512C4.2259 26.8456 3.70126 26.0393 3.36669 25.1493C3.03602 24.3 2.81335 23.332 2.74669 21.912C2.68402 20.4906 2.66669 20.0386 2.66669 16.416C2.66669 12.7933 2.68002 12.3413 2.74669 10.92C2.81335 9.49864 3.03602 8.53331 3.36669 7.68264C3.70034 6.79221 4.22509 5.98574 4.90402 5.31997C5.57025 4.64162 6.37659 4.11695 7.26669 3.78264C8.11735 3.45198 9.08269 3.22931 10.504 3.16264C11.9254 3.09997 12.3774 3.08264 16 3.08264ZM16 9.74931C14.2319 9.74931 12.5362 10.4517 11.286 11.7019C10.0357 12.9522 9.33335 14.6479 9.33335 16.416C9.33335 18.1841 10.0357 19.8798 11.286 21.13C12.5362 22.3803 14.2319 23.0826 16 23.0826C17.7681 23.0826 19.4638 22.3803 20.7141 21.13C21.9643 19.8798 22.6667 18.1841 22.6667 16.416C22.6667 14.6479 21.9643 12.9522 20.7141 11.7019C19.4638 10.4517 17.7681 9.74931 16 9.74931ZM24.6667 9.41598C24.6667 8.97395 24.4911 8.55002 24.1785 8.23746C23.866 7.9249 23.442 7.74931 23 7.74931C22.558 7.74931 22.1341 7.9249 21.8215 8.23746C21.5089 8.55002 21.3334 8.97395 21.3334 9.41598C21.3334 9.858 21.5089 10.2819 21.8215 10.5945C22.1341 10.907 22.558 11.0826 23 11.0826C23.442 11.0826 23.866 10.907 24.1785 10.5945C24.4911 10.2819 24.6667 9.858 24.6667 9.41598ZM16 12.416C17.0609 12.416 18.0783 12.8374 18.8284 13.5875C19.5786 14.3377 20 15.3551 20 16.416C20 17.4768 19.5786 18.4943 18.8284 19.2444C18.0783 19.9945 17.0609 20.416 16 20.416C14.9392 20.416 13.9217 19.9945 13.1716 19.2444C12.4214 18.4943 12 17.4768 12 16.416C12 15.3551 12.4214 14.3377 13.1716 13.5875C13.9217 12.8374 14.9392 12.416 16 12.416Z" fill="#5243C2"/>
</g>
<defs>
<clipPath id="clip0_2_561">
<rect width="32" height="32" fill="white" transform="translate(0 0.416016)"/>
</clipPath>
</defs>
</svg>
