<svg width="32" height="33" viewBox="0 0 32 33" fill="none" xmlns="http://www.w3.org/2000/svg">
<g clip-path="url(#clip0_2_557)">
<path d="M29.5493 7.95737C28.5314 8.40763 27.452 8.70334 26.3467 8.83471C27.5117 8.13795 28.3836 7.04139 28.8 5.74937C27.7067 6.40004 26.508 6.85604 25.2587 7.10271C24.4195 6.20481 23.3072 5.60932 22.0946 5.40882C20.8821 5.20831 19.6373 5.41403 18.5537 5.99398C17.4701 6.57393 16.6085 7.49562 16.1028 8.61576C15.5971 9.73591 15.4757 10.9917 15.7573 12.188C13.5402 12.0769 11.3711 11.5007 9.39106 10.4969C7.411 9.49311 5.66418 8.0841 4.26401 6.36137C3.7684 7.21264 3.50795 8.18034 3.50934 9.16537C3.50934 11.0987 4.49334 12.8067 5.98934 13.8067C5.10402 13.7788 4.23819 13.5397 3.46401 13.1094V13.1787C3.46428 14.4663 3.90983 15.7142 4.72514 16.7108C5.54044 17.7074 6.67532 18.3913 7.93734 18.6467C7.1155 18.8694 6.25375 18.9023 5.41734 18.7427C5.77317 19.851 6.46668 20.8203 7.4008 21.5149C8.33491 22.2094 9.46285 22.5944 10.6267 22.616C9.46998 23.5245 8.14558 24.196 6.72918 24.5923C5.31279 24.9885 3.83218 25.1017 2.37201 24.9254C4.92094 26.5646 7.88814 27.4349 10.9187 27.432C21.176 27.432 26.7853 18.9347 26.7853 11.5654C26.7853 11.3254 26.7787 11.0827 26.768 10.8454C27.8598 10.0563 28.8021 9.07873 29.5507 7.95871L29.5493 7.95737Z" fill="#5243C2"/>
</g>
<defs>
<clipPath id="clip0_2_557">
<rect width="32" height="32" fill="white" transform="translate(0 0.416016)"/>
</clipPath>
</defs>
</svg>
